<?xml version="1.0" encoding="UTF-8" standalone="no"?>
<svg
   xmlns:dc="http://purl.org/dc/elements/1.1/"
   xmlns:cc="http://creativecommons.org/ns#"
   xmlns:rdf="http://www.w3.org/1999/02/22-rdf-syntax-ns#"
   xmlns:svg="http://www.w3.org/2000/svg"
   xmlns="http://www.w3.org/2000/svg"
   xmlns:sodipodi="http://sodipodi.sourceforge.net/DTD/sodipodi-0.dtd"
   xmlns:inkscape="http://www.inkscape.org/namespaces/inkscape"
   version="1.1"
   id="Layer_1"
   x="0px"
   y="0px"
   viewBox="0 0 512 512"
   xml:space="preserve"
   sodipodi:docname="icon.svg"
   width="512"
   height="512"
   inkscape:version="1.0.1 (3bc2e813f5, 2020-09-07)"><metadata
   id="metadata78"><rdf:RDF><cc:Work
       rdf:about=""><dc:format>image/svg+xml</dc:format><dc:type
         rdf:resource="http://purl.org/dc/dcmitype/StillImage" /><dc:title></dc:title></cc:Work></rdf:RDF></metadata><defs
   id="defs76" /><sodipodi:namedview
   pagecolor="#ffffff"
   bordercolor="#666666"
   borderopacity="1"
   objecttolerance="10"
   gridtolerance="10"
   guidetolerance="10"
   inkscape:pageopacity="0"
   inkscape:pageshadow="2"
   inkscape:window-width="1080"
   inkscape:window-height="1897"
   id="namedview74"
   showgrid="false"
   inkscape:zoom="1.5114379"
   inkscape:cx="306"
   inkscape:cy="268.39459"
   inkscape:window-x="-8"
   inkscape:window-y="-8"
   inkscape:window-maximized="1"
   inkscape:current-layer="g71" />
<style
   type="text/css"
   id="style45">
	.st0{fill:#1F1F1F;}
</style>
<g
   id="g71">
	
	<path
   class="st0"
   d="M 496.41127,224.08214 286.65331,14.861506 c -17.26813,-17.2238992 -45.27659,-17.2238992 -62.54472,0 L 14.350629,224.08214 c -17.2681319,17.2239 -17.2681319,45.16062 0,62.35244 L 224.10859,495.65525 c 17.26813,17.2239 45.27659,17.2239 62.54472,0 L 496.41127,286.43458 c 17.26813,-17.2239 17.26813,-45.12854 0,-62.35244 z m -108.75386,44.45498 c -8.19995,8.1148 -21.4485,8.08273 -29.58414,-0.12829 l -100.26449,-100.8416 -90.32809,89.359 85.50459,86.02328 30.29158,-29.98948 -42.76837,-43.01164 c -8.13564,-8.17894 -8.10348,-21.39356 0.12863,-29.50835 8.19995,-8.1148 21.44849,-8.08273 29.58413,0.12829 l 57.49613,57.82997 c 3.92311,3.91306 6.10977,9.23739 6.07761,14.78625 -0.0322,5.54886 -2.25097,10.84112 -6.20624,14.72211 l -60.0365,59.36953 c -4.0839,4.04136 -9.42191,6.06205 -14.72776,6.06205 -5.40232,0 -10.77248,-2.05276 -14.85638,-6.19034 L 122.97586,271.48796 c -3.92311,-3.91307 -6.10977,-9.2374 -6.07761,-14.78625 0.0322,-5.54886 2.25097,-10.84112 6.20624,-14.72211 l 120.073,-118.77113 c 8.19995,-8.1148 21.4485,-8.08272 29.58414,0.1283 l 114.99225,115.65992 c 8.1678,8.17895 8.13564,21.39356 -0.0965,29.54043 z"
   id="path69"
   style="stroke-width:3.21155" />
</g>
</svg>
